<mxfile host="app.diagrams.net" agent="Mozilla/5.0 (Windows NT 10.0; Win64; x64) AppleWebKit/537.36 (KHTML, like Gecko) Chrome/136.0.0.0 Safari/537.36" version="27.1.1" pages="2">
  <diagram name="클래스 다이어그램" id="VJxy3wNVraWODcKdU12I">
    <mxGraphModel dx="1426" dy="751" grid="1" gridSize="10" guides="1" tooltips="1" connect="1" arrows="1" fold="1" page="1" pageScale="1" pageWidth="827" pageHeight="1169" math="0" shadow="0">
      <root>
        <mxCell id="0" />
        <mxCell id="1" parent="0" />
        <mxCell id="ZIRXnYzfT6kc68j9ZB6r-18" value="Configuration Manager" style="swimlane;fontStyle=0;childLayout=stackLayout;horizontal=1;startSize=26;fillColor=none;horizontalStack=0;resizeParent=1;resizeParentMax=0;resizeLast=0;collapsible=1;marginBottom=0;whiteSpace=wrap;html=1;fontSize=14;" parent="1" vertex="1">
          <mxGeometry x="20" y="273" width="260" height="312" as="geometry" />
        </mxCell>
        <mxCell id="ZIRXnYzfT6kc68j9ZB6r-20" value="- configPath: string" style="text;strokeColor=none;fillColor=none;align=left;verticalAlign=top;spacingLeft=4;spacingRight=4;overflow=hidden;rotatable=0;points=[[0,0.5],[1,0.5]];portConstraint=eastwest;whiteSpace=wrap;html=1;fontSize=14;" parent="ZIRXnYzfT6kc68j9ZB6r-18" vertex="1">
          <mxGeometry y="26" width="260" height="26" as="geometry" />
        </mxCell>
        <mxCell id="ZIRXnYzfT6kc68j9ZB6r-22" value="- watchPaths: vector&amp;lt;std::string&amp;gt;" style="text;strokeColor=none;fillColor=none;align=left;verticalAlign=top;spacingLeft=4;spacingRight=4;overflow=hidden;rotatable=0;points=[[0,0.5],[1,0.5]];portConstraint=eastwest;whiteSpace=wrap;html=1;fontSize=14;" parent="ZIRXnYzfT6kc68j9ZB6r-18" vertex="1">
          <mxGeometry y="52" width="260" height="26" as="geometry" />
        </mxCell>
        <mxCell id="ZIRXnYzfT6kc68j9ZB6r-23" value="- excludePaths: vector&amp;lt;std::string&amp;gt;" style="text;strokeColor=none;fillColor=none;align=left;verticalAlign=top;spacingLeft=4;spacingRight=4;overflow=hidden;rotatable=0;points=[[0,0.5],[1,0.5]];portConstraint=eastwest;whiteSpace=wrap;html=1;fontSize=14;" parent="ZIRXnYzfT6kc68j9ZB6r-18" vertex="1">
          <mxGeometry y="78" width="260" height="26" as="geometry" />
        </mxCell>
        <mxCell id="ZIRXnYzfT6kc68j9ZB6r-30" value="+ loadConfig()" style="text;strokeColor=none;fillColor=none;align=left;verticalAlign=top;spacingLeft=4;spacingRight=4;overflow=hidden;rotatable=0;points=[[0,0.5],[1,0.5]];portConstraint=eastwest;whiteSpace=wrap;html=1;fontSize=14;" parent="ZIRXnYzfT6kc68j9ZB6r-18" vertex="1">
          <mxGeometry y="104" width="260" height="26" as="geometry" />
        </mxCell>
        <mxCell id="ZIRXnYzfT6kc68j9ZB6r-31" value="+ saveConfig()" style="text;strokeColor=none;fillColor=none;align=left;verticalAlign=top;spacingLeft=4;spacingRight=4;overflow=hidden;rotatable=0;points=[[0,0.5],[1,0.5]];portConstraint=eastwest;whiteSpace=wrap;html=1;fontSize=14;" parent="ZIRXnYzfT6kc68j9ZB6r-18" vertex="1">
          <mxGeometry y="130" width="260" height="26" as="geometry" />
        </mxCell>
        <mxCell id="ZIRXnYzfT6kc68j9ZB6r-32" value="+ getWatchPath(): vector&amp;lt;string&amp;gt;" style="text;strokeColor=none;fillColor=none;align=left;verticalAlign=top;spacingLeft=4;spacingRight=4;overflow=hidden;rotatable=0;points=[[0,0.5],[1,0.5]];portConstraint=eastwest;whiteSpace=wrap;html=1;fontSize=14;" parent="ZIRXnYzfT6kc68j9ZB6r-18" vertex="1">
          <mxGeometry y="156" width="260" height="26" as="geometry" />
        </mxCell>
        <mxCell id="ZIRXnYzfT6kc68j9ZB6r-33" value="" style="endArrow=none;dashed=1;html=1;rounded=0;fontSize=14;startSize=8;endSize=8;curved=1;exitX=0;exitY=0.038;exitDx=0;exitDy=0;exitPerimeter=0;entryX=1;entryY=0;entryDx=0;entryDy=0;entryPerimeter=0;" parent="ZIRXnYzfT6kc68j9ZB6r-18" source="ZIRXnYzfT6kc68j9ZB6r-30" target="ZIRXnYzfT6kc68j9ZB6r-30" edge="1">
          <mxGeometry width="50" height="50" relative="1" as="geometry">
            <mxPoint x="240" y="300" as="sourcePoint" />
            <mxPoint x="290" y="250" as="targetPoint" />
          </mxGeometry>
        </mxCell>
        <mxCell id="WtrN3WJP0tcY6WC5yems-49" value="+ getExcludePath(): vector&amp;lt;string&amp;gt;" style="text;strokeColor=none;fillColor=none;align=left;verticalAlign=top;spacingLeft=4;spacingRight=4;overflow=hidden;rotatable=0;points=[[0,0.5],[1,0.5]];portConstraint=eastwest;whiteSpace=wrap;html=1;fontSize=14;" parent="ZIRXnYzfT6kc68j9ZB6r-18" vertex="1">
          <mxGeometry y="182" width="260" height="26" as="geometry" />
        </mxCell>
        <mxCell id="WtrN3WJP0tcY6WC5yems-50" value="+ addWatchPath()" style="text;strokeColor=none;fillColor=none;align=left;verticalAlign=top;spacingLeft=4;spacingRight=4;overflow=hidden;rotatable=0;points=[[0,0.5],[1,0.5]];portConstraint=eastwest;whiteSpace=wrap;html=1;fontSize=14;" parent="ZIRXnYzfT6kc68j9ZB6r-18" vertex="1">
          <mxGeometry y="208" width="260" height="26" as="geometry" />
        </mxCell>
        <mxCell id="WtrN3WJP0tcY6WC5yems-53" value="+ removeWatchPath()" style="text;strokeColor=none;fillColor=none;align=left;verticalAlign=top;spacingLeft=4;spacingRight=4;overflow=hidden;rotatable=0;points=[[0,0.5],[1,0.5]];portConstraint=eastwest;whiteSpace=wrap;html=1;fontSize=14;" parent="ZIRXnYzfT6kc68j9ZB6r-18" vertex="1">
          <mxGeometry y="234" width="260" height="26" as="geometry" />
        </mxCell>
        <mxCell id="WtrN3WJP0tcY6WC5yems-56" value="+ addExcludePath()" style="text;strokeColor=none;fillColor=none;align=left;verticalAlign=top;spacingLeft=4;spacingRight=4;overflow=hidden;rotatable=0;points=[[0,0.5],[1,0.5]];portConstraint=eastwest;whiteSpace=wrap;html=1;fontSize=14;" parent="ZIRXnYzfT6kc68j9ZB6r-18" vertex="1">
          <mxGeometry y="260" width="260" height="26" as="geometry" />
        </mxCell>
        <mxCell id="WtrN3WJP0tcY6WC5yems-57" value="+ removeExcludePath()" style="text;strokeColor=none;fillColor=none;align=left;verticalAlign=top;spacingLeft=4;spacingRight=4;overflow=hidden;rotatable=0;points=[[0,0.5],[1,0.5]];portConstraint=eastwest;whiteSpace=wrap;html=1;fontSize=14;" parent="ZIRXnYzfT6kc68j9ZB6r-18" vertex="1">
          <mxGeometry y="286" width="260" height="26" as="geometry" />
        </mxCell>
        <mxCell id="ZIRXnYzfT6kc68j9ZB6r-34" value="Baseline Maker" style="swimlane;fontStyle=0;childLayout=stackLayout;horizontal=1;startSize=26;fillColor=none;horizontalStack=0;resizeParent=1;resizeParentMax=0;resizeLast=0;collapsible=1;marginBottom=0;whiteSpace=wrap;html=1;fontSize=14;" parent="1" vertex="1">
          <mxGeometry x="400" y="200" width="260" height="182" as="geometry" />
        </mxCell>
        <mxCell id="ZIRXnYzfT6kc68j9ZB6r-40" value="- baselineHash: string" style="text;strokeColor=none;fillColor=none;align=left;verticalAlign=top;spacingLeft=4;spacingRight=4;overflow=hidden;rotatable=0;points=[[0,0.5],[1,0.5]];portConstraint=eastwest;whiteSpace=wrap;html=1;fontSize=14;" parent="ZIRXnYzfT6kc68j9ZB6r-34" vertex="1">
          <mxGeometry y="26" width="260" height="26" as="geometry" />
        </mxCell>
        <mxCell id="ZIRXnYzfT6kc68j9ZB6r-41" value="+ generateBaseline()" style="text;strokeColor=none;fillColor=none;align=left;verticalAlign=top;spacingLeft=4;spacingRight=4;overflow=hidden;rotatable=0;points=[[0,0.5],[1,0.5]];portConstraint=eastwest;whiteSpace=wrap;html=1;fontSize=14;" parent="ZIRXnYzfT6kc68j9ZB6r-34" vertex="1">
          <mxGeometry y="52" width="260" height="26" as="geometry" />
        </mxCell>
        <mxCell id="ZIRXnYzfT6kc68j9ZB6r-42" value="+ updateBaseline()" style="text;strokeColor=none;fillColor=none;align=left;verticalAlign=top;spacingLeft=4;spacingRight=4;overflow=hidden;rotatable=0;points=[[0,0.5],[1,0.5]];portConstraint=eastwest;whiteSpace=wrap;html=1;fontSize=14;" parent="ZIRXnYzfT6kc68j9ZB6r-34" vertex="1">
          <mxGeometry y="78" width="260" height="26" as="geometry" />
        </mxCell>
        <mxCell id="ZIRXnYzfT6kc68j9ZB6r-43" value="+ saveToDatabase()" style="text;strokeColor=none;fillColor=none;align=left;verticalAlign=top;spacingLeft=4;spacingRight=4;overflow=hidden;rotatable=0;points=[[0,0.5],[1,0.5]];portConstraint=eastwest;whiteSpace=wrap;html=1;fontSize=14;" parent="ZIRXnYzfT6kc68j9ZB6r-34" vertex="1">
          <mxGeometry y="104" width="260" height="26" as="geometry" />
        </mxCell>
        <mxCell id="ZIRXnYzfT6kc68j9ZB6r-44" value="" style="endArrow=none;dashed=1;html=1;rounded=0;fontSize=14;startSize=8;endSize=8;curved=1;exitX=0;exitY=0.038;exitDx=0;exitDy=0;exitPerimeter=0;entryX=1;entryY=0;entryDx=0;entryDy=0;entryPerimeter=0;" parent="ZIRXnYzfT6kc68j9ZB6r-34" source="ZIRXnYzfT6kc68j9ZB6r-41" target="ZIRXnYzfT6kc68j9ZB6r-41" edge="1">
          <mxGeometry width="50" height="50" relative="1" as="geometry">
            <mxPoint x="240" y="300" as="sourcePoint" />
            <mxPoint x="290" y="250" as="targetPoint" />
          </mxGeometry>
        </mxCell>
        <mxCell id="WtrN3WJP0tcY6WC5yems-58" value="+ getBaseline()" style="text;strokeColor=none;fillColor=none;align=left;verticalAlign=top;spacingLeft=4;spacingRight=4;overflow=hidden;rotatable=0;points=[[0,0.5],[1,0.5]];portConstraint=eastwest;whiteSpace=wrap;html=1;fontSize=14;" parent="ZIRXnYzfT6kc68j9ZB6r-34" vertex="1">
          <mxGeometry y="130" width="260" height="26" as="geometry" />
        </mxCell>
        <mxCell id="WtrN3WJP0tcY6WC5yems-60" value="+ logBaseline()" style="text;strokeColor=none;fillColor=none;align=left;verticalAlign=top;spacingLeft=4;spacingRight=4;overflow=hidden;rotatable=0;points=[[0,0.5],[1,0.5]];portConstraint=eastwest;whiteSpace=wrap;html=1;fontSize=14;" parent="ZIRXnYzfT6kc68j9ZB6r-34" vertex="1">
          <mxGeometry y="156" width="260" height="26" as="geometry" />
        </mxCell>
        <mxCell id="jFnnESjbPJnYCQeLFpBj-1" value="Realtime Moitor" style="swimlane;fontStyle=0;childLayout=stackLayout;horizontal=1;startSize=26;fillColor=none;horizontalStack=0;resizeParent=1;resizeParentMax=0;resizeLast=0;collapsible=1;marginBottom=0;whiteSpace=wrap;html=1;fontSize=14;" parent="1" vertex="1">
          <mxGeometry x="400" y="513" width="260" height="156" as="geometry" />
        </mxCell>
        <mxCell id="jFnnESjbPJnYCQeLFpBj-3" value="- fanotifyFd: int" style="text;strokeColor=none;fillColor=none;align=left;verticalAlign=top;spacingLeft=4;spacingRight=4;overflow=hidden;rotatable=0;points=[[0,0.5],[1,0.5]];portConstraint=eastwest;whiteSpace=wrap;html=1;fontSize=14;" parent="jFnnESjbPJnYCQeLFpBj-1" vertex="1">
          <mxGeometry y="26" width="260" height="26" as="geometry" />
        </mxCell>
        <mxCell id="jFnnESjbPJnYCQeLFpBj-8" value="+ initialize()" style="text;strokeColor=none;fillColor=none;align=left;verticalAlign=top;spacingLeft=4;spacingRight=4;overflow=hidden;rotatable=0;points=[[0,0.5],[1,0.5]];portConstraint=eastwest;whiteSpace=wrap;html=1;fontSize=14;" parent="jFnnESjbPJnYCQeLFpBj-1" vertex="1">
          <mxGeometry y="52" width="260" height="26" as="geometry" />
        </mxCell>
        <mxCell id="jFnnESjbPJnYCQeLFpBj-9" value="+ startMonitoring()" style="text;strokeColor=none;fillColor=none;align=left;verticalAlign=top;spacingLeft=4;spacingRight=4;overflow=hidden;rotatable=0;points=[[0,0.5],[1,0.5]];portConstraint=eastwest;whiteSpace=wrap;html=1;fontSize=14;" parent="jFnnESjbPJnYCQeLFpBj-1" vertex="1">
          <mxGeometry y="78" width="260" height="26" as="geometry" />
        </mxCell>
        <mxCell id="jFnnESjbPJnYCQeLFpBj-11" value="" style="endArrow=none;dashed=1;html=1;rounded=0;fontSize=14;startSize=8;endSize=8;curved=1;exitX=0;exitY=0.038;exitDx=0;exitDy=0;exitPerimeter=0;entryX=1;entryY=0;entryDx=0;entryDy=0;entryPerimeter=0;" parent="jFnnESjbPJnYCQeLFpBj-1" source="jFnnESjbPJnYCQeLFpBj-8" target="jFnnESjbPJnYCQeLFpBj-8" edge="1">
          <mxGeometry width="50" height="50" relative="1" as="geometry">
            <mxPoint x="240" y="300" as="sourcePoint" />
            <mxPoint x="290" y="250" as="targetPoint" />
          </mxGeometry>
        </mxCell>
        <mxCell id="WtrN3WJP0tcY6WC5yems-59" value="+ stopMonitoring()" style="text;strokeColor=none;fillColor=none;align=left;verticalAlign=top;spacingLeft=4;spacingRight=4;overflow=hidden;rotatable=0;points=[[0,0.5],[1,0.5]];portConstraint=eastwest;whiteSpace=wrap;html=1;fontSize=14;" parent="jFnnESjbPJnYCQeLFpBj-1" vertex="1">
          <mxGeometry y="104" width="260" height="26" as="geometry" />
        </mxCell>
        <mxCell id="WtrN3WJP0tcY6WC5yems-61" value="+ logMonitor()" style="text;strokeColor=none;fillColor=none;align=left;verticalAlign=top;spacingLeft=4;spacingRight=4;overflow=hidden;rotatable=0;points=[[0,0.5],[1,0.5]];portConstraint=eastwest;whiteSpace=wrap;html=1;fontSize=14;" parent="jFnnESjbPJnYCQeLFpBj-1" vertex="1">
          <mxGeometry y="130" width="260" height="26" as="geometry" />
        </mxCell>
        <mxCell id="jFnnESjbPJnYCQeLFpBj-13" value="File Scanner" style="swimlane;fontStyle=0;childLayout=stackLayout;horizontal=1;startSize=26;fillColor=none;horizontalStack=0;resizeParent=1;resizeParentMax=0;resizeLast=0;collapsible=1;marginBottom=0;whiteSpace=wrap;html=1;fontSize=14;" parent="1" vertex="1">
          <mxGeometry x="753" y="200" width="260" height="156" as="geometry" />
        </mxCell>
        <mxCell id="WtrN3WJP0tcY6WC5yems-73" value="- filePath: string" style="text;strokeColor=none;fillColor=none;align=left;verticalAlign=top;spacingLeft=4;spacingRight=4;overflow=hidden;rotatable=0;points=[[0,0.5],[1,0.5]];portConstraint=eastwest;whiteSpace=wrap;html=1;fontSize=14;" parent="jFnnESjbPJnYCQeLFpBj-13" vertex="1">
          <mxGeometry y="26" width="260" height="26" as="geometry" />
        </mxCell>
        <mxCell id="jFnnESjbPJnYCQeLFpBj-19" value="- baseline: string" style="text;strokeColor=none;fillColor=none;align=left;verticalAlign=top;spacingLeft=4;spacingRight=4;overflow=hidden;rotatable=0;points=[[0,0.5],[1,0.5]];portConstraint=eastwest;whiteSpace=wrap;html=1;fontSize=14;" parent="jFnnESjbPJnYCQeLFpBj-13" vertex="1">
          <mxGeometry y="52" width="260" height="26" as="geometry" />
        </mxCell>
        <mxCell id="jFnnESjbPJnYCQeLFpBj-20" value="- currentHash: string" style="text;strokeColor=none;fillColor=none;align=left;verticalAlign=top;spacingLeft=4;spacingRight=4;overflow=hidden;rotatable=0;points=[[0,0.5],[1,0.5]];portConstraint=eastwest;whiteSpace=wrap;html=1;fontSize=14;" parent="jFnnESjbPJnYCQeLFpBj-13" vertex="1">
          <mxGeometry y="78" width="260" height="26" as="geometry" />
        </mxCell>
        <mxCell id="jFnnESjbPJnYCQeLFpBj-23" value="" style="endArrow=none;dashed=1;html=1;rounded=0;fontSize=14;startSize=8;endSize=8;curved=1;exitX=0;exitY=0.038;exitDx=0;exitDy=0;exitPerimeter=0;entryX=1;entryY=0;entryDx=0;entryDy=0;entryPerimeter=0;" parent="jFnnESjbPJnYCQeLFpBj-13" edge="1">
          <mxGeometry width="50" height="50" relative="1" as="geometry">
            <mxPoint y="104.98800000000006" as="sourcePoint" />
            <mxPoint x="260" y="104" as="targetPoint" />
          </mxGeometry>
        </mxCell>
        <mxCell id="jFnnESjbPJnYCQeLFpBj-21" value="+ calculateHash()" style="text;strokeColor=none;fillColor=none;align=left;verticalAlign=top;spacingLeft=4;spacingRight=4;overflow=hidden;rotatable=0;points=[[0,0.5],[1,0.5]];portConstraint=eastwest;whiteSpace=wrap;html=1;fontSize=14;" parent="jFnnESjbPJnYCQeLFpBj-13" vertex="1">
          <mxGeometry y="104" width="260" height="26" as="geometry" />
        </mxCell>
        <mxCell id="WtrN3WJP0tcY6WC5yems-72" value="+ getBaseline()" style="text;strokeColor=none;fillColor=none;align=left;verticalAlign=top;spacingLeft=4;spacingRight=4;overflow=hidden;rotatable=0;points=[[0,0.5],[1,0.5]];portConstraint=eastwest;whiteSpace=wrap;html=1;fontSize=14;" parent="jFnnESjbPJnYCQeLFpBj-13" vertex="1">
          <mxGeometry y="130" width="260" height="26" as="geometry" />
        </mxCell>
        <mxCell id="WtrN3WJP0tcY6WC5yems-1" value="Event Blocker" style="swimlane;fontStyle=0;childLayout=stackLayout;horizontal=1;startSize=26;fillColor=none;horizontalStack=0;resizeParent=1;resizeParentMax=0;resizeLast=0;collapsible=1;marginBottom=0;whiteSpace=wrap;html=1;fontSize=14;" parent="1" vertex="1">
          <mxGeometry x="1086" y="565" width="260" height="78" as="geometry" />
        </mxCell>
        <mxCell id="WtrN3WJP0tcY6WC5yems-9" value="+ checkIntegrity()" style="text;strokeColor=none;fillColor=none;align=left;verticalAlign=top;spacingLeft=4;spacingRight=4;overflow=hidden;rotatable=0;points=[[0,0.5],[1,0.5]];portConstraint=eastwest;whiteSpace=wrap;html=1;fontSize=14;" parent="WtrN3WJP0tcY6WC5yems-1" vertex="1">
          <mxGeometry y="26" width="260" height="26" as="geometry" />
        </mxCell>
        <mxCell id="WtrN3WJP0tcY6WC5yems-10" value="+ logBlock()" style="text;strokeColor=none;fillColor=none;align=left;verticalAlign=top;spacingLeft=4;spacingRight=4;overflow=hidden;rotatable=0;points=[[0,0.5],[1,0.5]];portConstraint=eastwest;whiteSpace=wrap;html=1;fontSize=14;" parent="WtrN3WJP0tcY6WC5yems-1" vertex="1">
          <mxGeometry y="52" width="260" height="26" as="geometry" />
        </mxCell>
        <mxCell id="WtrN3WJP0tcY6WC5yems-28" value="Alarm Manager" style="swimlane;fontStyle=0;childLayout=stackLayout;horizontal=1;startSize=26;fillColor=none;horizontalStack=0;resizeParent=1;resizeParentMax=0;resizeLast=0;collapsible=1;marginBottom=0;whiteSpace=wrap;html=1;fontSize=14;" parent="1" vertex="1">
          <mxGeometry x="1296" y="390" width="260" height="78" as="geometry" />
        </mxCell>
        <mxCell id="WtrN3WJP0tcY6WC5yems-35" value="+ sendAlarm()" style="text;strokeColor=none;fillColor=none;align=left;verticalAlign=top;spacingLeft=4;spacingRight=4;overflow=hidden;rotatable=0;points=[[0,0.5],[1,0.5]];portConstraint=eastwest;whiteSpace=wrap;html=1;fontSize=14;" parent="WtrN3WJP0tcY6WC5yems-28" vertex="1">
          <mxGeometry y="26" width="260" height="26" as="geometry" />
        </mxCell>
        <mxCell id="WtrN3WJP0tcY6WC5yems-79" value="+ logAlarm()" style="text;strokeColor=none;fillColor=none;align=left;verticalAlign=top;spacingLeft=4;spacingRight=4;overflow=hidden;rotatable=0;points=[[0,0.5],[1,0.5]];portConstraint=eastwest;whiteSpace=wrap;html=1;fontSize=14;" parent="WtrN3WJP0tcY6WC5yems-28" vertex="1">
          <mxGeometry y="52" width="260" height="26" as="geometry" />
        </mxCell>
        <mxCell id="WtrN3WJP0tcY6WC5yems-54" style="edgeStyle=orthogonalEdgeStyle;rounded=0;orthogonalLoop=1;jettySize=auto;html=1;exitX=1;exitY=0.5;exitDx=0;exitDy=0;entryX=0;entryY=0.5;entryDx=0;entryDy=0;fontSize=14;" parent="1" source="ZIRXnYzfT6kc68j9ZB6r-31" target="ZIRXnYzfT6kc68j9ZB6r-41" edge="1">
          <mxGeometry relative="1" as="geometry" />
        </mxCell>
        <mxCell id="WtrN3WJP0tcY6WC5yems-55" style="edgeStyle=orthogonalEdgeStyle;rounded=0;orthogonalLoop=1;jettySize=auto;html=1;exitX=1;exitY=0.5;exitDx=0;exitDy=0;entryX=0;entryY=0.5;entryDx=0;entryDy=0;" parent="1" source="ZIRXnYzfT6kc68j9ZB6r-31" target="jFnnESjbPJnYCQeLFpBj-8" edge="1">
          <mxGeometry relative="1" as="geometry" />
        </mxCell>
        <mxCell id="WtrN3WJP0tcY6WC5yems-62" value="Integrity Checker" style="swimlane;fontStyle=0;childLayout=stackLayout;horizontal=1;startSize=26;fillColor=none;horizontalStack=0;resizeParent=1;resizeParentMax=0;resizeLast=0;collapsible=1;marginBottom=0;whiteSpace=wrap;html=1;fontSize=14;" parent="1" vertex="1">
          <mxGeometry x="1086" y="226" width="260" height="78" as="geometry" />
        </mxCell>
        <mxCell id="WtrN3WJP0tcY6WC5yems-63" value="+ checkIntegrity()" style="text;strokeColor=none;fillColor=none;align=left;verticalAlign=top;spacingLeft=4;spacingRight=4;overflow=hidden;rotatable=0;points=[[0,0.5],[1,0.5]];portConstraint=eastwest;whiteSpace=wrap;html=1;fontSize=14;" parent="WtrN3WJP0tcY6WC5yems-62" vertex="1">
          <mxGeometry y="26" width="260" height="26" as="geometry" />
        </mxCell>
        <mxCell id="WtrN3WJP0tcY6WC5yems-64" value="+ markChecked()" style="text;strokeColor=none;fillColor=none;align=left;verticalAlign=top;spacingLeft=4;spacingRight=4;overflow=hidden;rotatable=0;points=[[0,0.5],[1,0.5]];portConstraint=eastwest;whiteSpace=wrap;html=1;fontSize=14;" parent="WtrN3WJP0tcY6WC5yems-62" vertex="1">
          <mxGeometry y="52" width="260" height="26" as="geometry" />
        </mxCell>
        <mxCell id="WtrN3WJP0tcY6WC5yems-66" style="edgeStyle=orthogonalEdgeStyle;rounded=0;orthogonalLoop=1;jettySize=auto;html=1;exitX=1;exitY=0.5;exitDx=0;exitDy=0;" parent="1" source="jFnnESjbPJnYCQeLFpBj-9" edge="1">
          <mxGeometry relative="1" as="geometry">
            <mxPoint x="888" y="360" as="targetPoint" />
          </mxGeometry>
        </mxCell>
        <mxCell id="WtrN3WJP0tcY6WC5yems-68" style="edgeStyle=orthogonalEdgeStyle;rounded=0;orthogonalLoop=1;jettySize=auto;html=1;exitX=1;exitY=0.5;exitDx=0;exitDy=0;entryX=0.5;entryY=0;entryDx=0;entryDy=0;" parent="1" source="WtrN3WJP0tcY6WC5yems-63" target="WtrN3WJP0tcY6WC5yems-28" edge="1">
          <mxGeometry relative="1" as="geometry" />
        </mxCell>
        <mxCell id="WtrN3WJP0tcY6WC5yems-71" style="edgeStyle=orthogonalEdgeStyle;rounded=0;orthogonalLoop=1;jettySize=auto;html=1;exitX=1;exitY=0.5;exitDx=0;exitDy=0;entryX=0;entryY=0.5;entryDx=0;entryDy=0;" parent="1" source="jFnnESjbPJnYCQeLFpBj-9" target="WtrN3WJP0tcY6WC5yems-9" edge="1">
          <mxGeometry relative="1" as="geometry" />
        </mxCell>
        <mxCell id="WtrN3WJP0tcY6WC5yems-74" style="edgeStyle=orthogonalEdgeStyle;rounded=0;orthogonalLoop=1;jettySize=auto;html=1;exitX=1;exitY=0.5;exitDx=0;exitDy=0;entryX=0;entryY=0.5;entryDx=0;entryDy=0;" parent="1" source="ZIRXnYzfT6kc68j9ZB6r-41" target="jFnnESjbPJnYCQeLFpBj-19" edge="1">
          <mxGeometry relative="1" as="geometry" />
        </mxCell>
        <mxCell id="WtrN3WJP0tcY6WC5yems-76" style="edgeStyle=orthogonalEdgeStyle;rounded=0;orthogonalLoop=1;jettySize=auto;html=1;exitX=1;exitY=0.5;exitDx=0;exitDy=0;entryX=0;entryY=0.5;entryDx=0;entryDy=0;" parent="1" source="jFnnESjbPJnYCQeLFpBj-19" target="WtrN3WJP0tcY6WC5yems-63" edge="1">
          <mxGeometry relative="1" as="geometry" />
        </mxCell>
        <mxCell id="WtrN3WJP0tcY6WC5yems-78" style="edgeStyle=orthogonalEdgeStyle;rounded=0;orthogonalLoop=1;jettySize=auto;html=1;exitX=1;exitY=0.5;exitDx=0;exitDy=0;" parent="1" source="WtrN3WJP0tcY6WC5yems-9" edge="1">
          <mxGeometry relative="1" as="geometry">
            <mxPoint x="1426" y="470" as="targetPoint" />
          </mxGeometry>
        </mxCell>
      </root>
    </mxGraphModel>
  </diagram>
  <diagram id="v84raAimv68tMn7o-BhL" name="사용자 시나리오">
    <mxGraphModel dx="3252" dy="2302" grid="0" gridSize="10" guides="1" tooltips="1" connect="1" arrows="1" fold="1" page="0" pageScale="1" pageWidth="827" pageHeight="1169" math="0" shadow="0">
      <root>
        <mxCell id="0" />
        <mxCell id="1" parent="0" />
        <mxCell id="cU0EM4pNdqxbvN_QfZAh-42" value="" style="edgeStyle=none;curved=1;rounded=0;orthogonalLoop=1;jettySize=auto;html=1;fontSize=19;startSize=8;endSize=8;entryX=0;entryY=0.5;entryDx=0;entryDy=0;fontStyle=1" parent="1" source="cU0EM4pNdqxbvN_QfZAh-12" edge="1">
          <mxGeometry relative="1" as="geometry">
            <mxPoint x="-99" y="-382" as="targetPoint" />
          </mxGeometry>
        </mxCell>
        <mxCell id="cU0EM4pNdqxbvN_QfZAh-12" value="" style="html=1;verticalLabelPosition=bottom;align=center;labelBackgroundColor=#ffffff;verticalAlign=top;strokeWidth=2;strokeColor=#0080F0;shadow=0;dashed=0;shape=mxgraph.ios7.icons.user;" parent="1" vertex="1">
          <mxGeometry x="-363" y="-441" width="113" height="118" as="geometry" />
        </mxCell>
        <mxCell id="cU0EM4pNdqxbvN_QfZAh-14" value="" style="verticalLabelPosition=bottom;html=1;verticalAlign=top;align=center;strokeColor=none;fillColor=#00BEF2;shape=mxgraph.azure.notification_topic;" parent="1" vertex="1">
          <mxGeometry x="854" y="-454" width="72" height="72" as="geometry" />
        </mxCell>
        <mxCell id="cU0EM4pNdqxbvN_QfZAh-16" value="" style="verticalLabelPosition=bottom;html=1;verticalAlign=top;align=center;strokeColor=none;fillColor=#00BEF2;shape=mxgraph.azure.message;pointerEvents=1;" parent="1" vertex="1">
          <mxGeometry x="969" y="-454" width="72" height="63" as="geometry" />
        </mxCell>
        <mxCell id="cU0EM4pNdqxbvN_QfZAh-18" value="" style="sketch=0;aspect=fixed;pointerEvents=1;shadow=0;dashed=0;html=1;strokeColor=none;labelPosition=center;verticalLabelPosition=bottom;verticalAlign=top;align=center;fillColor=#00188D;shape=mxgraph.azure.computer" parent="1" vertex="1">
          <mxGeometry x="824" y="-513" width="251.11" height="226" as="geometry" />
        </mxCell>
        <mxCell id="cU0EM4pNdqxbvN_QfZAh-25" value="&lt;font style=&quot;font-size: 36px;&quot;&gt;FIM 시스템&lt;/font&gt;" style="swimlane;whiteSpace=wrap;html=1;fontSize=19;startSize=43;" parent="1" vertex="1">
          <mxGeometry x="-207" y="-668" width="988" height="546" as="geometry" />
        </mxCell>
        <mxCell id="cU0EM4pNdqxbvN_QfZAh-56" value="" style="edgeStyle=orthogonalEdgeStyle;rounded=0;orthogonalLoop=1;jettySize=auto;html=1;fontSize=19;startSize=8;endSize=8;fontStyle=1" parent="cU0EM4pNdqxbvN_QfZAh-25" source="cU0EM4pNdqxbvN_QfZAh-54" target="cU0EM4pNdqxbvN_QfZAh-55" edge="1">
          <mxGeometry relative="1" as="geometry">
            <Array as="points">
              <mxPoint x="169" y="133" />
            </Array>
          </mxGeometry>
        </mxCell>
        <mxCell id="cU0EM4pNdqxbvN_QfZAh-58" value="" style="edgeStyle=orthogonalEdgeStyle;rounded=0;orthogonalLoop=1;jettySize=auto;html=1;fontSize=19;startSize=8;endSize=8;fontStyle=1" parent="cU0EM4pNdqxbvN_QfZAh-25" source="cU0EM4pNdqxbvN_QfZAh-54" target="cU0EM4pNdqxbvN_QfZAh-57" edge="1">
          <mxGeometry relative="1" as="geometry">
            <Array as="points">
              <mxPoint x="169" y="410" />
            </Array>
          </mxGeometry>
        </mxCell>
        <mxCell id="cU0EM4pNdqxbvN_QfZAh-54" value="&lt;font&gt;감시 파일 설정&lt;/font&gt;" style="rounded=1;whiteSpace=wrap;html=1;fillColor=#DDA0DD;fontSize=19;fontStyle=1" parent="cU0EM4pNdqxbvN_QfZAh-25" vertex="1">
          <mxGeometry x="50" y="256" width="120" height="60" as="geometry" />
        </mxCell>
        <mxCell id="cU0EM4pNdqxbvN_QfZAh-62" value="" style="edgeStyle=none;curved=1;rounded=0;orthogonalLoop=1;jettySize=auto;html=1;fontSize=19;startSize=8;endSize=8;fontStyle=1" parent="cU0EM4pNdqxbvN_QfZAh-25" source="cU0EM4pNdqxbvN_QfZAh-55" target="cU0EM4pNdqxbvN_QfZAh-61" edge="1">
          <mxGeometry relative="1" as="geometry" />
        </mxCell>
        <mxCell id="cU0EM4pNdqxbvN_QfZAh-55" value="베이스라인 저장" style="whiteSpace=wrap;html=1;rounded=1;fillColor=#ADD8E6;fontSize=19;fontStyle=1" parent="cU0EM4pNdqxbvN_QfZAh-25" vertex="1">
          <mxGeometry x="274" y="109" width="106" height="60" as="geometry" />
        </mxCell>
        <mxCell id="cU0EM4pNdqxbvN_QfZAh-66" value="" style="edgeStyle=orthogonalEdgeStyle;rounded=0;orthogonalLoop=1;jettySize=auto;html=1;fontSize=19;startSize=8;endSize=8;entryX=0.5;entryY=1;entryDx=0;entryDy=0;fontStyle=1" parent="cU0EM4pNdqxbvN_QfZAh-25" source="cU0EM4pNdqxbvN_QfZAh-57" target="cU0EM4pNdqxbvN_QfZAh-61" edge="1">
          <mxGeometry relative="1" as="geometry" />
        </mxCell>
        <mxCell id="cU0EM4pNdqxbvN_QfZAh-71" style="edgeStyle=none;curved=1;rounded=0;orthogonalLoop=1;jettySize=auto;html=1;exitX=1;exitY=0.5;exitDx=0;exitDy=0;fontSize=19;startSize=8;endSize=8;fontStyle=1" parent="cU0EM4pNdqxbvN_QfZAh-25" source="cU0EM4pNdqxbvN_QfZAh-65" edge="1">
          <mxGeometry relative="1" as="geometry">
            <mxPoint x="753.2941176470588" y="410.47058823529414" as="targetPoint" />
          </mxGeometry>
        </mxCell>
        <mxCell id="cU0EM4pNdqxbvN_QfZAh-78" style="edgeStyle=orthogonalEdgeStyle;rounded=0;orthogonalLoop=1;jettySize=auto;html=1;exitX=1;exitY=0.5;exitDx=0;exitDy=0;entryX=0;entryY=0.5;entryDx=0;entryDy=0;fontSize=19;startSize=8;endSize=8;fontStyle=1" parent="cU0EM4pNdqxbvN_QfZAh-25" source="cU0EM4pNdqxbvN_QfZAh-57" target="cU0EM4pNdqxbvN_QfZAh-67" edge="1">
          <mxGeometry relative="1" as="geometry">
            <Array as="points">
              <mxPoint x="499" y="410" />
              <mxPoint x="499" y="266" />
            </Array>
          </mxGeometry>
        </mxCell>
        <mxCell id="cU0EM4pNdqxbvN_QfZAh-57" value="실시간 이벤트 감지" style="whiteSpace=wrap;html=1;rounded=1;fillColor=#ADD8E6;fontSize=19;fontStyle=1" parent="cU0EM4pNdqxbvN_QfZAh-25" vertex="1">
          <mxGeometry x="274" y="380" width="120" height="60" as="geometry" />
        </mxCell>
        <mxCell id="cU0EM4pNdqxbvN_QfZAh-64" value="" style="edgeStyle=none;curved=1;rounded=0;orthogonalLoop=1;jettySize=auto;html=1;fontSize=19;startSize=8;endSize=8;fontStyle=1" parent="cU0EM4pNdqxbvN_QfZAh-25" source="cU0EM4pNdqxbvN_QfZAh-61" target="cU0EM4pNdqxbvN_QfZAh-63" edge="1">
          <mxGeometry relative="1" as="geometry" />
        </mxCell>
        <mxCell id="cU0EM4pNdqxbvN_QfZAh-61" value="무결성 검사" style="whiteSpace=wrap;html=1;rounded=1;fillColor=#ADD8E6;fontSize=19;fontStyle=1" parent="cU0EM4pNdqxbvN_QfZAh-25" vertex="1">
          <mxGeometry x="438" y="109" width="120" height="60" as="geometry" />
        </mxCell>
        <mxCell id="cU0EM4pNdqxbvN_QfZAh-73" style="edgeStyle=none;curved=1;rounded=0;orthogonalLoop=1;jettySize=auto;html=1;exitX=0.5;exitY=1;exitDx=0;exitDy=0;entryX=0.5;entryY=0;entryDx=0;entryDy=0;fontSize=19;startSize=8;endSize=8;fontStyle=1" parent="cU0EM4pNdqxbvN_QfZAh-25" source="cU0EM4pNdqxbvN_QfZAh-63" target="cU0EM4pNdqxbvN_QfZAh-67" edge="1">
          <mxGeometry relative="1" as="geometry" />
        </mxCell>
        <mxCell id="cU0EM4pNdqxbvN_QfZAh-76" value="" style="edgeStyle=orthogonalEdgeStyle;rounded=0;orthogonalLoop=1;jettySize=auto;html=1;fontSize=19;startSize=8;endSize=8;fontStyle=1" parent="cU0EM4pNdqxbvN_QfZAh-25" source="cU0EM4pNdqxbvN_QfZAh-63" target="cU0EM4pNdqxbvN_QfZAh-75" edge="1">
          <mxGeometry relative="1" as="geometry" />
        </mxCell>
        <mxCell id="cU0EM4pNdqxbvN_QfZAh-63" value="변조 여부 판단" style="whiteSpace=wrap;html=1;rounded=1;fillColor=#ADD8E6;fontSize=19;fontStyle=1" parent="cU0EM4pNdqxbvN_QfZAh-25" vertex="1">
          <mxGeometry x="630" y="109" width="120" height="60" as="geometry" />
        </mxCell>
        <mxCell id="cU0EM4pNdqxbvN_QfZAh-74" style="edgeStyle=none;curved=1;rounded=0;orthogonalLoop=1;jettySize=auto;html=1;exitX=0.5;exitY=0;exitDx=0;exitDy=0;entryX=0.5;entryY=1;entryDx=0;entryDy=0;fontSize=19;startSize=8;endSize=8;fontStyle=1" parent="cU0EM4pNdqxbvN_QfZAh-25" source="cU0EM4pNdqxbvN_QfZAh-65" target="cU0EM4pNdqxbvN_QfZAh-67" edge="1">
          <mxGeometry relative="1" as="geometry" />
        </mxCell>
        <mxCell id="cU0EM4pNdqxbvN_QfZAh-67" value="로그 기록" style="whiteSpace=wrap;html=1;rounded=1;fillColor=#FFA500;fontSize=19;fontStyle=1" parent="cU0EM4pNdqxbvN_QfZAh-25" vertex="1">
          <mxGeometry x="630" y="236" width="120" height="60" as="geometry" />
        </mxCell>
        <mxCell id="cU0EM4pNdqxbvN_QfZAh-75" value="알림" style="whiteSpace=wrap;html=1;rounded=1;fillColor=#ADD8E6;fontSize=19;fontStyle=1" parent="cU0EM4pNdqxbvN_QfZAh-25" vertex="1">
          <mxGeometry x="817" y="236" width="120" height="60" as="geometry" />
        </mxCell>
        <mxCell id="cU0EM4pNdqxbvN_QfZAh-80" value="" style="edgeStyle=none;curved=1;rounded=0;orthogonalLoop=1;jettySize=auto;html=1;exitX=1;exitY=0.5;exitDx=0;exitDy=0;fontSize=19;startSize=8;endSize=8;fontStyle=1" parent="cU0EM4pNdqxbvN_QfZAh-25" source="cU0EM4pNdqxbvN_QfZAh-57" target="cU0EM4pNdqxbvN_QfZAh-65" edge="1">
          <mxGeometry relative="1" as="geometry">
            <mxPoint x="546.2941176470588" y="-257.52941176470586" as="targetPoint" />
            <mxPoint x="187" y="-258" as="sourcePoint" />
          </mxGeometry>
        </mxCell>
        <mxCell id="cU0EM4pNdqxbvN_QfZAh-65" value="정책 기반 차단" style="whiteSpace=wrap;html=1;rounded=1;fillColor=#FF4D4D;fontSize=19;fontStyle=1" parent="cU0EM4pNdqxbvN_QfZAh-25" vertex="1">
          <mxGeometry x="630" y="378" width="120" height="60" as="geometry" />
        </mxCell>
        <mxCell id="cU0EM4pNdqxbvN_QfZAh-77" style="edgeStyle=none;curved=1;rounded=0;orthogonalLoop=1;jettySize=auto;html=1;exitX=1;exitY=0.5;exitDx=0;exitDy=0;entryX=0;entryY=0.5;entryDx=0;entryDy=0;entryPerimeter=0;fontSize=12;startSize=8;endSize=8;" parent="1" source="cU0EM4pNdqxbvN_QfZAh-75" target="cU0EM4pNdqxbvN_QfZAh-18" edge="1">
          <mxGeometry relative="1" as="geometry" />
        </mxCell>
        <mxCell id="cU0EM4pNdqxbvN_QfZAh-79" value="" style="shape=actor;whiteSpace=wrap;html=1;" parent="1" vertex="1">
          <mxGeometry x="999" y="-411.5" width="152" height="177" as="geometry" />
        </mxCell>
        <mxCell id="42o5Z2nlbikBYEN4Zf3I-1" value="" style="edgeStyle=none;curved=1;rounded=0;orthogonalLoop=1;jettySize=auto;html=1;fontSize=19;startSize=8;endSize=8;entryX=0;entryY=0.5;entryDx=0;entryDy=0;" parent="1" source="42o5Z2nlbikBYEN4Zf3I-2" edge="1">
          <mxGeometry relative="1" as="geometry">
            <mxPoint x="-108" y="516" as="targetPoint" />
          </mxGeometry>
        </mxCell>
        <mxCell id="42o5Z2nlbikBYEN4Zf3I-2" value="" style="html=1;verticalLabelPosition=bottom;align=center;labelBackgroundColor=#ffffff;verticalAlign=top;strokeWidth=2;strokeColor=#0080F0;shadow=0;dashed=0;shape=mxgraph.ios7.icons.user;" parent="1" vertex="1">
          <mxGeometry x="-372" y="457" width="113" height="118" as="geometry" />
        </mxCell>
        <mxCell id="42o5Z2nlbikBYEN4Zf3I-3" value="" style="verticalLabelPosition=bottom;html=1;verticalAlign=top;align=center;strokeColor=none;fillColor=#00BEF2;shape=mxgraph.azure.notification_topic;" parent="1" vertex="1">
          <mxGeometry x="845" y="444" width="72" height="72" as="geometry" />
        </mxCell>
        <mxCell id="42o5Z2nlbikBYEN4Zf3I-4" value="" style="verticalLabelPosition=bottom;html=1;verticalAlign=top;align=center;strokeColor=none;fillColor=#00BEF2;shape=mxgraph.azure.message;pointerEvents=1;" parent="1" vertex="1">
          <mxGeometry x="960" y="444" width="72" height="63" as="geometry" />
        </mxCell>
        <mxCell id="42o5Z2nlbikBYEN4Zf3I-5" value="" style="sketch=0;aspect=fixed;pointerEvents=1;shadow=0;dashed=0;html=1;strokeColor=none;labelPosition=center;verticalLabelPosition=bottom;verticalAlign=top;align=center;fillColor=#00188D;shape=mxgraph.azure.computer" parent="1" vertex="1">
          <mxGeometry x="815" y="385" width="251.11" height="226" as="geometry" />
        </mxCell>
        <mxCell id="42o5Z2nlbikBYEN4Zf3I-6" value="&lt;font style=&quot;font-size: 36px;&quot;&gt;로그분석 시스템&lt;/font&gt;" style="swimlane;whiteSpace=wrap;html=1;fontSize=29;startSize=43;" parent="1" vertex="1">
          <mxGeometry x="-216" y="230" width="988" height="546" as="geometry" />
        </mxCell>
        <mxCell id="42o5Z2nlbikBYEN4Zf3I-29" style="edgeStyle=orthogonalEdgeStyle;rounded=0;orthogonalLoop=1;jettySize=auto;html=1;exitX=1;exitY=0.5;exitDx=0;exitDy=0;entryX=0;entryY=0.5;entryDx=0;entryDy=0;fontSize=19;fontStyle=1" parent="42o5Z2nlbikBYEN4Zf3I-6" source="42o5Z2nlbikBYEN4Zf3I-9" target="42o5Z2nlbikBYEN4Zf3I-28" edge="1">
          <mxGeometry relative="1" as="geometry" />
        </mxCell>
        <mxCell id="42o5Z2nlbikBYEN4Zf3I-9" value="&lt;font&gt;수집 로그 설정&lt;/font&gt;" style="rounded=1;whiteSpace=wrap;html=1;fillColor=#DDA0DD;fontSize=19;fontStyle=1" parent="42o5Z2nlbikBYEN4Zf3I-6" vertex="1">
          <mxGeometry x="50" y="256" width="120" height="60" as="geometry" />
        </mxCell>
        <mxCell id="42o5Z2nlbikBYEN4Zf3I-34" style="edgeStyle=orthogonalEdgeStyle;rounded=0;orthogonalLoop=1;jettySize=auto;html=1;exitX=1;exitY=0.5;exitDx=0;exitDy=0;entryX=0;entryY=0.5;entryDx=0;entryDy=0;fontSize=19;fontStyle=1" parent="42o5Z2nlbikBYEN4Zf3I-6" source="42o5Z2nlbikBYEN4Zf3I-28" target="42o5Z2nlbikBYEN4Zf3I-33" edge="1">
          <mxGeometry relative="1" as="geometry" />
        </mxCell>
        <mxCell id="42o5Z2nlbikBYEN4Zf3I-28" value="실시간 로그 수집 및 분석" style="whiteSpace=wrap;html=1;rounded=1;fillColor=#ADD8E6;fontSize=19;fontStyle=1" parent="42o5Z2nlbikBYEN4Zf3I-6" vertex="1">
          <mxGeometry x="213" y="252" width="140" height="68" as="geometry" />
        </mxCell>
        <mxCell id="42o5Z2nlbikBYEN4Zf3I-45" style="edgeStyle=orthogonalEdgeStyle;rounded=0;orthogonalLoop=1;jettySize=auto;html=1;exitX=1;exitY=0.5;exitDx=0;exitDy=0;entryX=0;entryY=0.5;entryDx=0;entryDy=0;fontSize=19;fontStyle=1" parent="42o5Z2nlbikBYEN4Zf3I-6" source="42o5Z2nlbikBYEN4Zf3I-33" target="42o5Z2nlbikBYEN4Zf3I-39" edge="1">
          <mxGeometry relative="1" as="geometry" />
        </mxCell>
        <mxCell id="42o5Z2nlbikBYEN4Zf3I-47" style="edgeStyle=orthogonalEdgeStyle;rounded=0;orthogonalLoop=1;jettySize=auto;html=1;exitX=0.5;exitY=0;exitDx=0;exitDy=0;entryX=0;entryY=0.5;entryDx=0;entryDy=0;fontSize=19;fontStyle=1" parent="42o5Z2nlbikBYEN4Zf3I-6" source="42o5Z2nlbikBYEN4Zf3I-33" target="42o5Z2nlbikBYEN4Zf3I-36" edge="1">
          <mxGeometry relative="1" as="geometry" />
        </mxCell>
        <mxCell id="42o5Z2nlbikBYEN4Zf3I-48" style="edgeStyle=orthogonalEdgeStyle;rounded=0;orthogonalLoop=1;jettySize=auto;html=1;exitX=0.5;exitY=1;exitDx=0;exitDy=0;entryX=0;entryY=0.5;entryDx=0;entryDy=0;fontSize=19;fontStyle=1" parent="42o5Z2nlbikBYEN4Zf3I-6" source="42o5Z2nlbikBYEN4Zf3I-33" target="42o5Z2nlbikBYEN4Zf3I-38" edge="1">
          <mxGeometry relative="1" as="geometry" />
        </mxCell>
        <mxCell id="42o5Z2nlbikBYEN4Zf3I-33" value="악성행위 여부&amp;nbsp;&lt;div&gt;판단&lt;/div&gt;" style="whiteSpace=wrap;html=1;rounded=1;fillColor=#ADD8E6;fontSize=19;fontStyle=1" parent="42o5Z2nlbikBYEN4Zf3I-6" vertex="1">
          <mxGeometry x="418" y="252" width="140" height="68" as="geometry" />
        </mxCell>
        <mxCell id="42o5Z2nlbikBYEN4Zf3I-46" style="edgeStyle=orthogonalEdgeStyle;rounded=0;orthogonalLoop=1;jettySize=auto;html=1;exitX=0.5;exitY=1;exitDx=0;exitDy=0;entryX=0.5;entryY=0;entryDx=0;entryDy=0;fontSize=19;fontStyle=1" parent="42o5Z2nlbikBYEN4Zf3I-6" source="42o5Z2nlbikBYEN4Zf3I-36" target="42o5Z2nlbikBYEN4Zf3I-38" edge="1">
          <mxGeometry relative="1" as="geometry" />
        </mxCell>
        <mxCell id="42o5Z2nlbikBYEN4Zf3I-36" value="정책 기반 차단" style="whiteSpace=wrap;html=1;rounded=1;fillColor=#FF4D4D;fontSize=19;fontStyle=1" parent="42o5Z2nlbikBYEN4Zf3I-6" vertex="1">
          <mxGeometry x="647" y="124" width="120" height="60" as="geometry" />
        </mxCell>
        <mxCell id="42o5Z2nlbikBYEN4Zf3I-38" value="로그 기록" style="whiteSpace=wrap;html=1;rounded=1;fillColor=#FFA500;fontSize=19;fontStyle=1" parent="42o5Z2nlbikBYEN4Zf3I-6" vertex="1">
          <mxGeometry x="647" y="385" width="120" height="60" as="geometry" />
        </mxCell>
        <mxCell id="42o5Z2nlbikBYEN4Zf3I-39" value="알림" style="whiteSpace=wrap;html=1;rounded=1;fillColor=#ADD8E6;fontSize=19;fontStyle=1" parent="42o5Z2nlbikBYEN4Zf3I-6" vertex="1">
          <mxGeometry x="825" y="256" width="120" height="60" as="geometry" />
        </mxCell>
        <mxCell id="42o5Z2nlbikBYEN4Zf3I-27" value="" style="shape=actor;whiteSpace=wrap;html=1;" parent="1" vertex="1">
          <mxGeometry x="990" y="486.5" width="152" height="177" as="geometry" />
        </mxCell>
        <mxCell id="42o5Z2nlbikBYEN4Zf3I-44" style="edgeStyle=orthogonalEdgeStyle;rounded=0;orthogonalLoop=1;jettySize=auto;html=1;exitX=1;exitY=0.5;exitDx=0;exitDy=0;entryX=0.004;entryY=0.58;entryDx=0;entryDy=0;entryPerimeter=0;" parent="1" source="42o5Z2nlbikBYEN4Zf3I-39" target="42o5Z2nlbikBYEN4Zf3I-5" edge="1">
          <mxGeometry relative="1" as="geometry" />
        </mxCell>
        <mxCell id="hBLehTJTSNMoO5SV4nIW-1" value="" style="edgeStyle=none;curved=1;rounded=0;orthogonalLoop=1;jettySize=auto;html=1;fontSize=19;startSize=8;endSize=8;entryX=0;entryY=0.5;entryDx=0;entryDy=0;fontStyle=1" parent="1" source="hBLehTJTSNMoO5SV4nIW-2" edge="1">
          <mxGeometry relative="1" as="geometry">
            <mxPoint x="-108" y="1364" as="targetPoint" />
          </mxGeometry>
        </mxCell>
        <mxCell id="hBLehTJTSNMoO5SV4nIW-2" value="" style="html=1;verticalLabelPosition=bottom;align=center;labelBackgroundColor=#ffffff;verticalAlign=top;strokeWidth=2;strokeColor=#0080F0;shadow=0;dashed=0;shape=mxgraph.ios7.icons.user;" parent="1" vertex="1">
          <mxGeometry x="-372" y="1305" width="113" height="118" as="geometry" />
        </mxCell>
        <mxCell id="hBLehTJTSNMoO5SV4nIW-3" value="" style="verticalLabelPosition=bottom;html=1;verticalAlign=top;align=center;strokeColor=none;fillColor=#00BEF2;shape=mxgraph.azure.notification_topic;" parent="1" vertex="1">
          <mxGeometry x="845" y="1292" width="72" height="72" as="geometry" />
        </mxCell>
        <mxCell id="hBLehTJTSNMoO5SV4nIW-4" value="" style="verticalLabelPosition=bottom;html=1;verticalAlign=top;align=center;strokeColor=none;fillColor=#00BEF2;shape=mxgraph.azure.message;pointerEvents=1;" parent="1" vertex="1">
          <mxGeometry x="960" y="1292" width="72" height="63" as="geometry" />
        </mxCell>
        <mxCell id="hBLehTJTSNMoO5SV4nIW-5" value="" style="sketch=0;aspect=fixed;pointerEvents=1;shadow=0;dashed=0;html=1;strokeColor=none;labelPosition=center;verticalLabelPosition=bottom;verticalAlign=top;align=center;fillColor=#00188D;shape=mxgraph.azure.computer" parent="1" vertex="1">
          <mxGeometry x="815" y="1233" width="251.11" height="226" as="geometry" />
        </mxCell>
        <mxCell id="hBLehTJTSNMoO5SV4nIW-6" value="&lt;font style=&quot;font-size: 36px;&quot;&gt;악성코드 탐지 시스템&lt;/font&gt;" style="swimlane;whiteSpace=wrap;html=1;fontSize=29;startSize=43;" parent="1" vertex="1">
          <mxGeometry x="-216" y="1078" width="988" height="546" as="geometry" />
        </mxCell>
        <mxCell id="hBLehTJTSNMoO5SV4nIW-7" style="edgeStyle=orthogonalEdgeStyle;rounded=0;orthogonalLoop=1;jettySize=auto;html=1;exitX=1;exitY=0.5;exitDx=0;exitDy=0;entryX=0;entryY=0.5;entryDx=0;entryDy=0;fontSize=19;fontStyle=1" parent="hBLehTJTSNMoO5SV4nIW-6" source="hBLehTJTSNMoO5SV4nIW-8" target="hBLehTJTSNMoO5SV4nIW-10" edge="1">
          <mxGeometry relative="1" as="geometry" />
        </mxCell>
        <mxCell id="hBLehTJTSNMoO5SV4nIW-23" style="edgeStyle=orthogonalEdgeStyle;rounded=0;orthogonalLoop=1;jettySize=auto;html=1;exitX=1;exitY=0.5;exitDx=0;exitDy=0;entryX=0;entryY=0.5;entryDx=0;entryDy=0;fontSize=19;fontStyle=1" parent="hBLehTJTSNMoO5SV4nIW-6" source="hBLehTJTSNMoO5SV4nIW-8" target="hBLehTJTSNMoO5SV4nIW-22" edge="1">
          <mxGeometry relative="1" as="geometry" />
        </mxCell>
        <mxCell id="hBLehTJTSNMoO5SV4nIW-8" value="&lt;font&gt;검사 파일 설정&lt;/font&gt;" style="rounded=1;whiteSpace=wrap;html=1;fillColor=#DDA0DD;fontSize=19;fontStyle=1" parent="hBLehTJTSNMoO5SV4nIW-6" vertex="1">
          <mxGeometry x="50" y="256" width="120" height="60" as="geometry" />
        </mxCell>
        <mxCell id="hBLehTJTSNMoO5SV4nIW-9" style="edgeStyle=orthogonalEdgeStyle;rounded=0;orthogonalLoop=1;jettySize=auto;html=1;exitX=1;exitY=0.5;exitDx=0;exitDy=0;entryX=0;entryY=0.5;entryDx=0;entryDy=0;fontSize=19;fontStyle=1" parent="hBLehTJTSNMoO5SV4nIW-6" source="hBLehTJTSNMoO5SV4nIW-10" target="hBLehTJTSNMoO5SV4nIW-14" edge="1">
          <mxGeometry relative="1" as="geometry" />
        </mxCell>
        <mxCell id="hBLehTJTSNMoO5SV4nIW-10" value="수동(예약) 검사" style="whiteSpace=wrap;html=1;rounded=1;fillColor=#ADD8E6;fontSize=19;fontStyle=1" parent="hBLehTJTSNMoO5SV4nIW-6" vertex="1">
          <mxGeometry x="236" y="105" width="140" height="68" as="geometry" />
        </mxCell>
        <mxCell id="hBLehTJTSNMoO5SV4nIW-11" style="edgeStyle=orthogonalEdgeStyle;rounded=0;orthogonalLoop=1;jettySize=auto;html=1;exitX=1;exitY=0.5;exitDx=0;exitDy=0;entryX=0;entryY=0.5;entryDx=0;entryDy=0;fontSize=19;fontStyle=1" parent="hBLehTJTSNMoO5SV4nIW-6" source="hBLehTJTSNMoO5SV4nIW-14" target="hBLehTJTSNMoO5SV4nIW-18" edge="1">
          <mxGeometry relative="1" as="geometry" />
        </mxCell>
        <mxCell id="hBLehTJTSNMoO5SV4nIW-12" style="edgeStyle=orthogonalEdgeStyle;rounded=0;orthogonalLoop=1;jettySize=auto;html=1;exitX=0.5;exitY=0;exitDx=0;exitDy=0;entryX=0;entryY=0.5;entryDx=0;entryDy=0;fontSize=19;fontStyle=1" parent="hBLehTJTSNMoO5SV4nIW-6" source="hBLehTJTSNMoO5SV4nIW-14" target="hBLehTJTSNMoO5SV4nIW-16" edge="1">
          <mxGeometry relative="1" as="geometry" />
        </mxCell>
        <mxCell id="hBLehTJTSNMoO5SV4nIW-13" style="edgeStyle=orthogonalEdgeStyle;rounded=0;orthogonalLoop=1;jettySize=auto;html=1;exitX=0.5;exitY=1;exitDx=0;exitDy=0;entryX=0;entryY=0.5;entryDx=0;entryDy=0;fontSize=19;fontStyle=1" parent="hBLehTJTSNMoO5SV4nIW-6" source="hBLehTJTSNMoO5SV4nIW-14" target="hBLehTJTSNMoO5SV4nIW-17" edge="1">
          <mxGeometry relative="1" as="geometry" />
        </mxCell>
        <mxCell id="hBLehTJTSNMoO5SV4nIW-14" value="악성코드 여부&amp;nbsp;&lt;div&gt;판단&lt;/div&gt;" style="whiteSpace=wrap;html=1;rounded=1;fillColor=#ADD8E6;fontSize=19;fontStyle=1" parent="hBLehTJTSNMoO5SV4nIW-6" vertex="1">
          <mxGeometry x="459" y="252" width="140" height="68" as="geometry" />
        </mxCell>
        <mxCell id="hBLehTJTSNMoO5SV4nIW-15" style="edgeStyle=orthogonalEdgeStyle;rounded=0;orthogonalLoop=1;jettySize=auto;html=1;exitX=0.5;exitY=1;exitDx=0;exitDy=0;entryX=0.5;entryY=0;entryDx=0;entryDy=0;fontSize=19;fontStyle=1" parent="hBLehTJTSNMoO5SV4nIW-6" source="hBLehTJTSNMoO5SV4nIW-16" target="hBLehTJTSNMoO5SV4nIW-17" edge="1">
          <mxGeometry relative="1" as="geometry" />
        </mxCell>
        <mxCell id="hBLehTJTSNMoO5SV4nIW-16" value="악성코드 격리" style="whiteSpace=wrap;html=1;rounded=1;fillColor=#FF4D4D;fontSize=19;fontStyle=1" parent="hBLehTJTSNMoO5SV4nIW-6" vertex="1">
          <mxGeometry x="647" y="124" width="120" height="60" as="geometry" />
        </mxCell>
        <mxCell id="hBLehTJTSNMoO5SV4nIW-17" value="로그 기록" style="whiteSpace=wrap;html=1;rounded=1;fillColor=#FFA500;fontSize=19;fontStyle=1" parent="hBLehTJTSNMoO5SV4nIW-6" vertex="1">
          <mxGeometry x="647" y="385" width="120" height="60" as="geometry" />
        </mxCell>
        <mxCell id="hBLehTJTSNMoO5SV4nIW-18" value="알림" style="whiteSpace=wrap;html=1;rounded=1;fillColor=#ADD8E6;fontSize=19;fontStyle=1" parent="hBLehTJTSNMoO5SV4nIW-6" vertex="1">
          <mxGeometry x="825" y="256" width="120" height="60" as="geometry" />
        </mxCell>
        <mxCell id="hBLehTJTSNMoO5SV4nIW-24" style="edgeStyle=orthogonalEdgeStyle;rounded=0;orthogonalLoop=1;jettySize=auto;html=1;exitX=1;exitY=0.5;exitDx=0;exitDy=0;entryX=0;entryY=0.5;entryDx=0;entryDy=0;fontSize=19;fontStyle=1" parent="hBLehTJTSNMoO5SV4nIW-6" source="hBLehTJTSNMoO5SV4nIW-22" target="hBLehTJTSNMoO5SV4nIW-14" edge="1">
          <mxGeometry relative="1" as="geometry" />
        </mxCell>
        <mxCell id="hBLehTJTSNMoO5SV4nIW-22" value="실시간 검사" style="whiteSpace=wrap;html=1;rounded=1;fillColor=#ADD8E6;fontSize=19;fontStyle=1" parent="hBLehTJTSNMoO5SV4nIW-6" vertex="1">
          <mxGeometry x="236" y="391" width="140" height="68" as="geometry" />
        </mxCell>
        <mxCell id="hBLehTJTSNMoO5SV4nIW-19" value="" style="shape=actor;whiteSpace=wrap;html=1;" parent="1" vertex="1">
          <mxGeometry x="990" y="1334.5" width="152" height="177" as="geometry" />
        </mxCell>
        <mxCell id="hBLehTJTSNMoO5SV4nIW-20" style="edgeStyle=orthogonalEdgeStyle;rounded=0;orthogonalLoop=1;jettySize=auto;html=1;exitX=1;exitY=0.5;exitDx=0;exitDy=0;entryX=0.004;entryY=0.58;entryDx=0;entryDy=0;entryPerimeter=0;" parent="1" source="hBLehTJTSNMoO5SV4nIW-18" target="hBLehTJTSNMoO5SV4nIW-5" edge="1">
          <mxGeometry relative="1" as="geometry" />
        </mxCell>
        <mxCell id="R9DaYoFlmkw510I8DAV8-50" value="" style="edgeStyle=orthogonalEdgeStyle;rounded=0;orthogonalLoop=1;jettySize=auto;html=1;endArrow=oval;endFill=1;endSize=13;strokeWidth=3;" edge="1" parent="1" source="hBLehTJTSNMoO5SV4nIW-27">
          <mxGeometry relative="1" as="geometry">
            <mxPoint x="-101" y="2621" as="targetPoint" />
          </mxGeometry>
        </mxCell>
        <mxCell id="hBLehTJTSNMoO5SV4nIW-27" value="" style="html=1;verticalLabelPosition=bottom;align=center;labelBackgroundColor=#ffffff;verticalAlign=top;strokeWidth=3;strokeColor=#0080F0;shadow=0;dashed=0;shape=mxgraph.ios7.icons.user;" parent="1" vertex="1">
          <mxGeometry x="-366" y="2561.5" width="113" height="118" as="geometry" />
        </mxCell>
        <mxCell id="hBLehTJTSNMoO5SV4nIW-31" value="전체 시스템" style="swimlane;whiteSpace=wrap;html=1;fontSize=29;startSize=43;strokeWidth=1;" parent="1" vertex="1">
          <mxGeometry x="-201" y="1975" width="1603" height="1212" as="geometry" />
        </mxCell>
        <mxCell id="hBLehTJTSNMoO5SV4nIW-50" value="FIM 시스템" style="swimlane;whiteSpace=wrap;html=1;fontSize=25;strokeWidth=1;" parent="hBLehTJTSNMoO5SV4nIW-31" vertex="1">
          <mxGeometry x="413.5" y="86" width="474.5" height="358" as="geometry" />
        </mxCell>
        <mxCell id="R9DaYoFlmkw510I8DAV8-13" style="edgeStyle=orthogonalEdgeStyle;rounded=1;orthogonalLoop=1;jettySize=auto;html=1;exitX=1;exitY=0.5;exitDx=0;exitDy=0;entryX=0.5;entryY=1;entryDx=0;entryDy=0;curved=0;strokeWidth=3;" edge="1" parent="hBLehTJTSNMoO5SV4nIW-50" source="hBLehTJTSNMoO5SV4nIW-88" target="hBLehTJTSNMoO5SV4nIW-90">
          <mxGeometry relative="1" as="geometry" />
        </mxCell>
        <mxCell id="R9DaYoFlmkw510I8DAV8-17" style="edgeStyle=orthogonalEdgeStyle;rounded=1;orthogonalLoop=1;jettySize=auto;html=1;exitX=1;exitY=0.5;exitDx=0;exitDy=0;entryX=0;entryY=0.5;entryDx=0;entryDy=0;curved=0;strokeWidth=3;" edge="1" parent="hBLehTJTSNMoO5SV4nIW-50" source="hBLehTJTSNMoO5SV4nIW-88" target="hBLehTJTSNMoO5SV4nIW-98">
          <mxGeometry relative="1" as="geometry">
            <Array as="points">
              <mxPoint x="238" y="207" />
              <mxPoint x="238" y="296" />
            </Array>
          </mxGeometry>
        </mxCell>
        <mxCell id="hBLehTJTSNMoO5SV4nIW-88" value="실시간 이벤트 감지" style="whiteSpace=wrap;html=1;rounded=1;fillColor=#ADD8E6;fontSize=19;fontStyle=1;strokeWidth=1;" parent="hBLehTJTSNMoO5SV4nIW-50" vertex="1">
          <mxGeometry x="28.5" y="175" width="115.5" height="64" as="geometry" />
        </mxCell>
        <mxCell id="R9DaYoFlmkw510I8DAV8-14" style="edgeStyle=orthogonalEdgeStyle;rounded=0;orthogonalLoop=1;jettySize=auto;html=1;exitX=1;exitY=0.5;exitDx=0;exitDy=0;entryX=0;entryY=0.5;entryDx=0;entryDy=0;strokeWidth=3;" edge="1" parent="hBLehTJTSNMoO5SV4nIW-50" source="hBLehTJTSNMoO5SV4nIW-84" target="hBLehTJTSNMoO5SV4nIW-90">
          <mxGeometry relative="1" as="geometry" />
        </mxCell>
        <mxCell id="hBLehTJTSNMoO5SV4nIW-84" value="베이스라인 저장" style="whiteSpace=wrap;html=1;rounded=1;fillColor=#ADD8E6;fontSize=19;fontStyle=1;strokeWidth=1;" parent="hBLehTJTSNMoO5SV4nIW-50" vertex="1">
          <mxGeometry x="31.5" y="76" width="109.5" height="58" as="geometry" />
        </mxCell>
        <mxCell id="R9DaYoFlmkw510I8DAV8-15" style="edgeStyle=orthogonalEdgeStyle;rounded=0;orthogonalLoop=1;jettySize=auto;html=1;exitX=1;exitY=0.5;exitDx=0;exitDy=0;entryX=0;entryY=0.5;entryDx=0;entryDy=0;strokeWidth=3;" edge="1" parent="hBLehTJTSNMoO5SV4nIW-50" source="hBLehTJTSNMoO5SV4nIW-90" target="hBLehTJTSNMoO5SV4nIW-93">
          <mxGeometry relative="1" as="geometry" />
        </mxCell>
        <mxCell id="hBLehTJTSNMoO5SV4nIW-90" value="무결성 검사" style="whiteSpace=wrap;html=1;rounded=1;fillColor=#ADD8E6;fontSize=19;fontStyle=1;strokeWidth=1;" parent="hBLehTJTSNMoO5SV4nIW-50" vertex="1">
          <mxGeometry x="178" y="76" width="120" height="60" as="geometry" />
        </mxCell>
        <mxCell id="hBLehTJTSNMoO5SV4nIW-93" value="변조 여부 판단" style="whiteSpace=wrap;html=1;rounded=1;fillColor=#ADD8E6;fontSize=19;fontStyle=1;strokeWidth=1;" parent="hBLehTJTSNMoO5SV4nIW-50" vertex="1">
          <mxGeometry x="341.5" y="75" width="120" height="60" as="geometry" />
        </mxCell>
        <mxCell id="hBLehTJTSNMoO5SV4nIW-98" value="정책 기반 차단" style="whiteSpace=wrap;html=1;rounded=1;fillColor=#FF4D4D;fontSize=19;fontStyle=1;strokeWidth=1;" parent="hBLehTJTSNMoO5SV4nIW-50" vertex="1">
          <mxGeometry x="341.5" y="266" width="120" height="60" as="geometry" />
        </mxCell>
        <mxCell id="hBLehTJTSNMoO5SV4nIW-52" value="악성코드 탐지 시스템" style="swimlane;whiteSpace=wrap;html=1;fontSize=25;strokeWidth=1;" parent="hBLehTJTSNMoO5SV4nIW-31" vertex="1">
          <mxGeometry x="412" y="486" width="479" height="279" as="geometry" />
        </mxCell>
        <mxCell id="R9DaYoFlmkw510I8DAV8-34" style="edgeStyle=orthogonalEdgeStyle;rounded=1;orthogonalLoop=1;jettySize=auto;html=1;exitX=1;exitY=0.5;exitDx=0;exitDy=0;entryX=0.5;entryY=0;entryDx=0;entryDy=0;curved=0;strokeWidth=3;" edge="1" parent="hBLehTJTSNMoO5SV4nIW-52" source="R9DaYoFlmkw510I8DAV8-25" target="R9DaYoFlmkw510I8DAV8-33">
          <mxGeometry relative="1" as="geometry">
            <Array as="points">
              <mxPoint x="240" y="97" />
            </Array>
          </mxGeometry>
        </mxCell>
        <mxCell id="R9DaYoFlmkw510I8DAV8-25" value="실시간 검사" style="whiteSpace=wrap;html=1;rounded=1;fillColor=#ADD8E6;fontSize=19;fontStyle=1;strokeWidth=1;" vertex="1" parent="hBLehTJTSNMoO5SV4nIW-52">
          <mxGeometry x="28.5" y="67" width="120" height="60" as="geometry" />
        </mxCell>
        <mxCell id="R9DaYoFlmkw510I8DAV8-35" style="edgeStyle=orthogonalEdgeStyle;rounded=1;orthogonalLoop=1;jettySize=auto;html=1;exitX=1;exitY=0.5;exitDx=0;exitDy=0;entryX=0.5;entryY=1;entryDx=0;entryDy=0;curved=0;strokeWidth=3;" edge="1" parent="hBLehTJTSNMoO5SV4nIW-52" source="R9DaYoFlmkw510I8DAV8-26" target="R9DaYoFlmkw510I8DAV8-33">
          <mxGeometry relative="1" as="geometry">
            <Array as="points">
              <mxPoint x="240" y="193" />
            </Array>
          </mxGeometry>
        </mxCell>
        <mxCell id="R9DaYoFlmkw510I8DAV8-26" value="수동(예약) 검사" style="whiteSpace=wrap;html=1;rounded=1;fillColor=#ADD8E6;fontSize=19;fontStyle=1;strokeWidth=1;" vertex="1" parent="hBLehTJTSNMoO5SV4nIW-52">
          <mxGeometry x="26" y="162.5" width="125" height="61.5" as="geometry" />
        </mxCell>
        <mxCell id="R9DaYoFlmkw510I8DAV8-40" style="edgeStyle=orthogonalEdgeStyle;rounded=1;orthogonalLoop=1;jettySize=auto;html=1;exitX=1;exitY=0.5;exitDx=0;exitDy=0;entryX=0.5;entryY=0;entryDx=0;entryDy=0;curved=0;strokeWidth=3;" edge="1" parent="hBLehTJTSNMoO5SV4nIW-52" source="R9DaYoFlmkw510I8DAV8-33" target="R9DaYoFlmkw510I8DAV8-36">
          <mxGeometry relative="1" as="geometry" />
        </mxCell>
        <mxCell id="R9DaYoFlmkw510I8DAV8-33" value="악성코드 여부 판단" style="whiteSpace=wrap;html=1;rounded=1;fillColor=#ADD8E6;fontSize=19;fontStyle=1;strokeWidth=1;" vertex="1" parent="hBLehTJTSNMoO5SV4nIW-52">
          <mxGeometry x="177" y="113.75" width="125" height="61.5" as="geometry" />
        </mxCell>
        <mxCell id="R9DaYoFlmkw510I8DAV8-36" value="악성코드 격리" style="whiteSpace=wrap;html=1;rounded=1;fillColor=#FF4D4D;fontSize=19;fontStyle=1;strokeWidth=1;" vertex="1" parent="hBLehTJTSNMoO5SV4nIW-52">
          <mxGeometry x="345" y="191" width="120" height="60" as="geometry" />
        </mxCell>
        <mxCell id="hBLehTJTSNMoO5SV4nIW-53" value="로그분석 시스템" style="swimlane;whiteSpace=wrap;html=1;fontSize=25;strokeWidth=1;" parent="hBLehTJTSNMoO5SV4nIW-31" vertex="1">
          <mxGeometry x="411.25" y="812" width="480.5" height="288" as="geometry" />
        </mxCell>
        <mxCell id="R9DaYoFlmkw510I8DAV8-44" style="edgeStyle=orthogonalEdgeStyle;rounded=0;orthogonalLoop=1;jettySize=auto;html=1;exitX=1;exitY=0.5;exitDx=0;exitDy=0;entryX=0;entryY=0.5;entryDx=0;entryDy=0;strokeWidth=3;" edge="1" parent="hBLehTJTSNMoO5SV4nIW-53" source="R9DaYoFlmkw510I8DAV8-41" target="R9DaYoFlmkw510I8DAV8-43">
          <mxGeometry relative="1" as="geometry" />
        </mxCell>
        <mxCell id="R9DaYoFlmkw510I8DAV8-41" value="실시간 로그 수집 및 분석" style="whiteSpace=wrap;html=1;rounded=1;fillColor=#ADD8E6;fontSize=19;fontStyle=1;strokeWidth=1;" vertex="1" parent="hBLehTJTSNMoO5SV4nIW-53">
          <mxGeometry x="14.75" y="110" width="140" height="68" as="geometry" />
        </mxCell>
        <mxCell id="R9DaYoFlmkw510I8DAV8-46" style="edgeStyle=orthogonalEdgeStyle;rounded=0;orthogonalLoop=1;jettySize=auto;html=1;exitX=1;exitY=0.5;exitDx=0;exitDy=0;entryX=0;entryY=0.5;entryDx=0;entryDy=0;strokeWidth=3;" edge="1" parent="hBLehTJTSNMoO5SV4nIW-53" source="R9DaYoFlmkw510I8DAV8-43" target="R9DaYoFlmkw510I8DAV8-45">
          <mxGeometry relative="1" as="geometry" />
        </mxCell>
        <mxCell id="R9DaYoFlmkw510I8DAV8-43" value="악성행위 여부&amp;nbsp;&lt;div&gt;판단&lt;/div&gt;" style="whiteSpace=wrap;html=1;rounded=1;fillColor=#ADD8E6;fontSize=19;fontStyle=1;strokeWidth=1;" vertex="1" parent="hBLehTJTSNMoO5SV4nIW-53">
          <mxGeometry x="177.75" y="110" width="140" height="68" as="geometry" />
        </mxCell>
        <mxCell id="R9DaYoFlmkw510I8DAV8-45" value="정책 기반 차단" style="whiteSpace=wrap;html=1;rounded=1;fillColor=#FF4D4D;fontSize=19;fontStyle=1;strokeWidth=1;" vertex="1" parent="hBLehTJTSNMoO5SV4nIW-53">
          <mxGeometry x="347.75" y="114" width="120" height="60" as="geometry" />
        </mxCell>
        <mxCell id="hBLehTJTSNMoO5SV4nIW-54" value="전체 설정" style="swimlane;whiteSpace=wrap;html=1;fontSize=25;strokeWidth=1;" parent="hBLehTJTSNMoO5SV4nIW-31" vertex="1">
          <mxGeometry x="60" y="476" width="241" height="334" as="geometry" />
        </mxCell>
        <mxCell id="R9DaYoFlmkw510I8DAV8-48" style="edgeStyle=orthogonalEdgeStyle;rounded=1;orthogonalLoop=1;jettySize=auto;html=1;exitX=0;exitY=0.5;exitDx=0;exitDy=0;entryX=0;entryY=0.5;entryDx=0;entryDy=0;curved=0;endArrow=none;startFill=0;strokeWidth=3;" edge="1" parent="hBLehTJTSNMoO5SV4nIW-54" source="hBLehTJTSNMoO5SV4nIW-56" target="hBLehTJTSNMoO5SV4nIW-58">
          <mxGeometry relative="1" as="geometry" />
        </mxCell>
        <mxCell id="R9DaYoFlmkw510I8DAV8-76" style="edgeStyle=orthogonalEdgeStyle;rounded=0;orthogonalLoop=1;jettySize=auto;html=1;exitX=1;exitY=0.5;exitDx=0;exitDy=0;endArrow=oval;endFill=1;endSize=13;strokeWidth=3;" edge="1" parent="hBLehTJTSNMoO5SV4nIW-54" source="hBLehTJTSNMoO5SV4nIW-56">
          <mxGeometry relative="1" as="geometry">
            <mxPoint x="284" y="105.33333333333394" as="targetPoint" />
          </mxGeometry>
        </mxCell>
        <mxCell id="hBLehTJTSNMoO5SV4nIW-56" value="&lt;font&gt;감시파일 설정&lt;/font&gt;" style="rounded=1;whiteSpace=wrap;html=1;fillColor=#DDA0DD;fontSize=19;fontStyle=1;strokeWidth=1;" parent="hBLehTJTSNMoO5SV4nIW-54" vertex="1">
          <mxGeometry x="60.5" y="76" width="120" height="60" as="geometry" />
        </mxCell>
        <mxCell id="hBLehTJTSNMoO5SV4nIW-58" value="&lt;font&gt;수집 로그 설정&lt;/font&gt;" style="rounded=1;whiteSpace=wrap;html=1;fillColor=#DDA0DD;fontSize=19;fontStyle=1;strokeWidth=1;" parent="hBLehTJTSNMoO5SV4nIW-54" vertex="1">
          <mxGeometry x="60.5" y="199" width="120" height="60" as="geometry" />
        </mxCell>
        <mxCell id="R9DaYoFlmkw510I8DAV8-1" value="알림 시스템" style="swimlane;whiteSpace=wrap;html=1;fontSize=25;strokeWidth=1;" vertex="1" parent="hBLehTJTSNMoO5SV4nIW-31">
          <mxGeometry x="1286" y="539" width="262" height="208" as="geometry" />
        </mxCell>
        <mxCell id="R9DaYoFlmkw510I8DAV8-63" style="edgeStyle=orthogonalEdgeStyle;rounded=1;orthogonalLoop=1;jettySize=auto;html=1;exitX=1;exitY=0.5;exitDx=0;exitDy=0;entryX=1;entryY=0.5;entryDx=0;entryDy=0;curved=0;endArrow=none;startFill=0;strokeWidth=3;" edge="1" parent="R9DaYoFlmkw510I8DAV8-1" source="hBLehTJTSNMoO5SV4nIW-96" target="R9DaYoFlmkw510I8DAV8-2">
          <mxGeometry relative="1" as="geometry" />
        </mxCell>
        <mxCell id="hBLehTJTSNMoO5SV4nIW-96" value="알림" style="whiteSpace=wrap;html=1;rounded=1;fillColor=#ADD8E6;fontSize=19;fontStyle=1;strokeWidth=1;" parent="R9DaYoFlmkw510I8DAV8-1" vertex="1">
          <mxGeometry x="71" y="39" width="120" height="60" as="geometry" />
        </mxCell>
        <mxCell id="R9DaYoFlmkw510I8DAV8-2" value="주기적 보고서 발송" style="whiteSpace=wrap;html=1;rounded=1;fillColor=#ADD8E6;fontSize=19;fontStyle=1;strokeWidth=1;" vertex="1" parent="R9DaYoFlmkw510I8DAV8-1">
          <mxGeometry x="71" y="121" width="120" height="60" as="geometry" />
        </mxCell>
        <mxCell id="R9DaYoFlmkw510I8DAV8-7" value="로그기록 시스템" style="swimlane;whiteSpace=wrap;html=1;fontSize=25;strokeWidth=1;" vertex="1" parent="hBLehTJTSNMoO5SV4nIW-31">
          <mxGeometry x="1049" y="128" width="262" height="208" as="geometry" />
        </mxCell>
        <mxCell id="hBLehTJTSNMoO5SV4nIW-95" value="로그 기록" style="whiteSpace=wrap;html=1;rounded=1;fillColor=#FFA500;fontSize=19;fontStyle=1;strokeWidth=1;" parent="R9DaYoFlmkw510I8DAV8-7" vertex="1">
          <mxGeometry x="71" y="79" width="120" height="60" as="geometry" />
        </mxCell>
        <mxCell id="R9DaYoFlmkw510I8DAV8-27" style="edgeStyle=orthogonalEdgeStyle;rounded=0;orthogonalLoop=1;jettySize=auto;html=1;exitX=0.5;exitY=1;exitDx=0;exitDy=0;entryX=0.5;entryY=0;entryDx=0;entryDy=0;strokeWidth=3;" edge="1" parent="hBLehTJTSNMoO5SV4nIW-31" source="hBLehTJTSNMoO5SV4nIW-88" target="R9DaYoFlmkw510I8DAV8-25">
          <mxGeometry relative="1" as="geometry" />
        </mxCell>
        <mxCell id="R9DaYoFlmkw510I8DAV8-51" style="edgeStyle=orthogonalEdgeStyle;rounded=1;orthogonalLoop=1;jettySize=auto;html=1;exitX=1;exitY=0.5;exitDx=0;exitDy=0;entryX=0;entryY=0.5;entryDx=0;entryDy=0;curved=0;strokeWidth=3;" edge="1" parent="hBLehTJTSNMoO5SV4nIW-31" source="hBLehTJTSNMoO5SV4nIW-56" target="hBLehTJTSNMoO5SV4nIW-84">
          <mxGeometry relative="1" as="geometry" />
        </mxCell>
        <mxCell id="R9DaYoFlmkw510I8DAV8-52" style="edgeStyle=orthogonalEdgeStyle;rounded=1;orthogonalLoop=1;jettySize=auto;html=1;exitX=1;exitY=0.5;exitDx=0;exitDy=0;entryX=0;entryY=0.5;entryDx=0;entryDy=0;curved=0;strokeWidth=3;" edge="1" parent="hBLehTJTSNMoO5SV4nIW-31" source="hBLehTJTSNMoO5SV4nIW-56" target="hBLehTJTSNMoO5SV4nIW-88">
          <mxGeometry relative="1" as="geometry">
            <Array as="points">
              <mxPoint x="341" y="582" />
              <mxPoint x="341" y="293" />
            </Array>
          </mxGeometry>
        </mxCell>
        <mxCell id="R9DaYoFlmkw510I8DAV8-54" style="edgeStyle=orthogonalEdgeStyle;rounded=1;orthogonalLoop=1;jettySize=auto;html=1;exitX=1;exitY=0.5;exitDx=0;exitDy=0;entryX=0;entryY=0.5;entryDx=0;entryDy=0;curved=0;strokeWidth=3;" edge="1" parent="hBLehTJTSNMoO5SV4nIW-31" source="hBLehTJTSNMoO5SV4nIW-58" target="R9DaYoFlmkw510I8DAV8-41">
          <mxGeometry relative="1" as="geometry">
            <Array as="points">
              <mxPoint x="341" y="705" />
              <mxPoint x="341" y="956" />
            </Array>
          </mxGeometry>
        </mxCell>
        <mxCell id="R9DaYoFlmkw510I8DAV8-55" style="edgeStyle=orthogonalEdgeStyle;rounded=0;orthogonalLoop=1;jettySize=auto;html=1;exitX=1;exitY=0.5;exitDx=0;exitDy=0;entryX=0;entryY=0.5;entryDx=0;entryDy=0;strokeWidth=3;" edge="1" parent="hBLehTJTSNMoO5SV4nIW-31" source="hBLehTJTSNMoO5SV4nIW-56" target="R9DaYoFlmkw510I8DAV8-25">
          <mxGeometry relative="1" as="geometry" />
        </mxCell>
        <mxCell id="R9DaYoFlmkw510I8DAV8-56" style="edgeStyle=orthogonalEdgeStyle;rounded=1;orthogonalLoop=1;jettySize=auto;html=1;exitX=1;exitY=0.5;exitDx=0;exitDy=0;entryX=0;entryY=0.5;entryDx=0;entryDy=0;curved=0;strokeWidth=3;" edge="1" parent="hBLehTJTSNMoO5SV4nIW-31">
          <mxGeometry relative="1" as="geometry">
            <mxPoint x="238.5" y="582" as="sourcePoint" />
            <mxPoint x="436" y="679.2499999999991" as="targetPoint" />
            <Array as="points">
              <mxPoint x="344" y="582" />
              <mxPoint x="344" y="679" />
            </Array>
          </mxGeometry>
        </mxCell>
        <mxCell id="R9DaYoFlmkw510I8DAV8-3" value="" style="verticalLabelPosition=bottom;html=1;verticalAlign=top;align=center;strokeColor=none;fillColor=#00BEF2;shape=mxgraph.azure.notification_topic;" vertex="1" parent="1">
          <mxGeometry x="1491" y="2582" width="72" height="72" as="geometry" />
        </mxCell>
        <mxCell id="R9DaYoFlmkw510I8DAV8-4" value="" style="verticalLabelPosition=bottom;html=1;verticalAlign=top;align=center;strokeColor=none;fillColor=#00BEF2;shape=mxgraph.azure.message;pointerEvents=1;" vertex="1" parent="1">
          <mxGeometry x="1606" y="2582" width="72" height="63" as="geometry" />
        </mxCell>
        <mxCell id="R9DaYoFlmkw510I8DAV8-65" value="" style="edgeStyle=orthogonalEdgeStyle;rounded=0;orthogonalLoop=1;jettySize=auto;html=1;strokeWidth=3;" edge="1" parent="1">
          <mxGeometry relative="1" as="geometry">
            <mxPoint x="1295.4449999999997" y="2626" as="sourcePoint" />
            <mxPoint x="1461" y="2626" as="targetPoint" />
          </mxGeometry>
        </mxCell>
        <mxCell id="R9DaYoFlmkw510I8DAV8-5" value="" style="sketch=0;aspect=fixed;pointerEvents=1;shadow=0;dashed=0;html=1;strokeColor=none;labelPosition=center;verticalLabelPosition=bottom;verticalAlign=top;align=center;fillColor=#00188D;shape=mxgraph.azure.computer" vertex="1" parent="1">
          <mxGeometry x="1461" y="2523" width="251.11" height="226" as="geometry" />
        </mxCell>
        <mxCell id="R9DaYoFlmkw510I8DAV8-6" value="" style="shape=actor;whiteSpace=wrap;html=1;" vertex="1" parent="1">
          <mxGeometry x="1636" y="2624.5" width="152" height="177" as="geometry" />
        </mxCell>
      </root>
    </mxGraphModel>
  </diagram>
</mxfile>
